# xmcd
#
# Track frame offsets:
#	150
#	15982
#	28652
#	42420
#	58405
#	72440
#	88027
#	102227
#	115185
#	130427
#	140622
#	156692
#	170530
#	183490
#
# Disc length: 2673 seconds
#
# Revision: 1
# Processed by: cddbd v1.5.2PL0 Copyright (c) Steve Scherf et al.
# Submitted via: audiograbber 1.83.01
#
DISCID=cf0a6f0e
DTITLE=Vários - Sertanejas 1997 - Retratos da Musica Brasileira
DYEAR=1997
DGENRE=Sertaneja
TTITLE0=deixei de ser cowboy por ela - Chitão and Xororó
TTITLE1=bate o pé - Rionegro and Solimões
TTITLE2=moreninha linda - Tonico and Tinoco
TTITLE3=depois que amanhece - João Mineiro and Marciano
TTITLE4=não acredito - Adalberto and Adriano
TTITLE5=bailão de peão - Chitão and Xororó
TTITLE6=de são paulo a belém - Rionegro and Solimões
TTITLE7=o menino da porteira - Tonico and Tinoco
TTITLE8=viola está chorando - João Mineiro and Marciano
TTITLE9=esquecido - Maurício and Maurí
TTITLE10=coração sertanejo - Chitão and Xororo
TTITLE11=peão apaixonado - Rionegro and Solimões
TTITLE12=chora, minha viola - Tonico and Tinoco
TTITLE13=majestade o sabiá - Roberta Miranda
EXTD=
EXTT0=
EXTT1=
EXTT2=
EXTT3=
EXTT4=
EXTT5=
EXTT6=
EXTT7=
EXTT8=
EXTT9=
EXTT10=
EXTT11=
EXTT12=
EXTT13=
PLAYORDER=
